# xmcd
#
# Track frame offsets:
#	150
#	24944
#	43217
#	63409
#	82520
#	101030
#	119642
#	137368
#	155067
#	173365
#	191125
#	212074
#	229955
#	251232
#
# Disc length: 3677 seconds
#
# Revision: 5
# Processed by: cddbd v1.5.2PL0 Copyright (c) Steve Scherf et al.
# Submitted via: EZCDAudioConverter 7.1.5.1
#
DISCID=bd0e5b0e
DTITLE=조성모 - No More Love
DYEAR=2001
DGENRE=Ballad
TTITLE0=잘가요... 내 사랑...
TTITLE1=진심
TTITLE2=Never
TTITLE3=그대는 모릅니다
TTITLE4=단심(丹心)
TTITLE5=상념(想念)
TTITLE6=다시 시작된 사랑
TTITLE7=Loving U
TTITLE8=우요일의 비가(Tonight)
TTITLE9=짝
TTITLE10=청(請)
TTITLE11=약속
TTITLE12=부탁
TTITLE13=Good Bye... My Love...(Reprise)
EXTD=
EXTT0=
EXTT1=
EXTT2=
EXTT3=
EXTT4=
EXTT5=
EXTT6=
EXTT7=
EXTT8=
EXTT9=
EXTT10=
EXTT11=
EXTT12=
EXTT13=
PLAYORDER=
